<mxfile host="app.diagrams.net" modified="2023-05-21T05:37:18.720Z" agent="Mozilla/5.0 (Windows NT 10.0; Win64; x64) AppleWebKit/537.36 (KHTML, like Gecko) Chrome/113.0.0.0 Safari/537.36" etag="4zFYNvtxL_Y0hhhsLJ_C" version="21.3.0" type="device">
  <diagram name="第 1 页" id="LXphBNRdYi32Dz727fMi">
    <mxGraphModel dx="1302" dy="698" grid="1" gridSize="10" guides="1" tooltips="1" connect="1" arrows="1" fold="1" page="1" pageScale="1" pageWidth="827" pageHeight="1169" math="0" shadow="0">
      <root>
        <mxCell id="0" />
        <mxCell id="1" parent="0" />
        <mxCell id="WMfOsqNfYVRaj0SjAV3j-1" value="伺服器端程式" style="swimlane;whiteSpace=wrap;html=1;" vertex="1" collapsed="1" parent="1">
          <mxGeometry x="15" y="330" width="100" height="30" as="geometry">
            <mxRectangle x="15" y="330" width="1085" height="1180" as="alternateBounds" />
          </mxGeometry>
        </mxCell>
        <mxCell id="WMfOsqNfYVRaj0SjAV3j-68" value="讀取設定檔(.ini)" style="whiteSpace=wrap;html=1;strokeWidth=1;fontSize=15;" vertex="1" parent="WMfOsqNfYVRaj0SjAV3j-1">
          <mxGeometry x="42.5" y="180" width="120" height="60" as="geometry" />
        </mxCell>
        <mxCell id="WMfOsqNfYVRaj0SjAV3j-70" value="連線到&lt;br&gt;RabbitMQ伺服器" style="whiteSpace=wrap;html=1;fontSize=15;strokeWidth=1;" vertex="1" parent="WMfOsqNfYVRaj0SjAV3j-1">
          <mxGeometry x="42.5" y="320" width="120" height="60" as="geometry" />
        </mxCell>
        <mxCell id="WMfOsqNfYVRaj0SjAV3j-71" value="" style="edgeStyle=orthogonalEdgeStyle;rounded=0;orthogonalLoop=1;jettySize=auto;html=1;" edge="1" parent="WMfOsqNfYVRaj0SjAV3j-1" source="WMfOsqNfYVRaj0SjAV3j-68" target="WMfOsqNfYVRaj0SjAV3j-70">
          <mxGeometry relative="1" as="geometry" />
        </mxCell>
        <mxCell id="WMfOsqNfYVRaj0SjAV3j-72" value="開始事件迴圈" style="whiteSpace=wrap;html=1;fontSize=15;strokeWidth=1;" vertex="1" parent="WMfOsqNfYVRaj0SjAV3j-1">
          <mxGeometry x="42.5" y="460" width="120" height="60" as="geometry" />
        </mxCell>
        <mxCell id="WMfOsqNfYVRaj0SjAV3j-73" value="" style="edgeStyle=orthogonalEdgeStyle;rounded=0;orthogonalLoop=1;jettySize=auto;html=1;" edge="1" parent="WMfOsqNfYVRaj0SjAV3j-1" source="WMfOsqNfYVRaj0SjAV3j-70" target="WMfOsqNfYVRaj0SjAV3j-72">
          <mxGeometry relative="1" as="geometry" />
        </mxCell>
        <mxCell id="WMfOsqNfYVRaj0SjAV3j-83" value="" style="edgeStyle=orthogonalEdgeStyle;rounded=0;orthogonalLoop=1;jettySize=auto;html=1;" edge="1" parent="WMfOsqNfYVRaj0SjAV3j-1" source="WMfOsqNfYVRaj0SjAV3j-80">
          <mxGeometry relative="1" as="geometry">
            <mxPoint x="102.5" y="820" as="targetPoint" />
          </mxGeometry>
        </mxCell>
        <mxCell id="WMfOsqNfYVRaj0SjAV3j-80" value="事件迴圈&lt;br&gt;執行結束?" style="rhombus;whiteSpace=wrap;html=1;fontSize=15;strokeWidth=1;" vertex="1" parent="WMfOsqNfYVRaj0SjAV3j-1">
          <mxGeometry x="41.25" y="590" width="122.5" height="120" as="geometry" />
        </mxCell>
        <mxCell id="WMfOsqNfYVRaj0SjAV3j-81" value="" style="edgeStyle=orthogonalEdgeStyle;rounded=0;orthogonalLoop=1;jettySize=auto;html=1;" edge="1" parent="WMfOsqNfYVRaj0SjAV3j-1" source="WMfOsqNfYVRaj0SjAV3j-72" target="WMfOsqNfYVRaj0SjAV3j-80">
          <mxGeometry relative="1" as="geometry" />
        </mxCell>
        <mxCell id="WMfOsqNfYVRaj0SjAV3j-84" value="程式結束" style="strokeWidth=1;html=1;shape=mxgraph.flowchart.terminator;whiteSpace=wrap;" vertex="1" parent="WMfOsqNfYVRaj0SjAV3j-1">
          <mxGeometry x="52.5" y="820" width="100" height="60" as="geometry" />
        </mxCell>
        <mxCell id="WMfOsqNfYVRaj0SjAV3j-89" value="Yes" style="text;html=1;align=center;verticalAlign=middle;resizable=0;points=[];autosize=1;strokeColor=none;fillColor=none;" vertex="1" parent="WMfOsqNfYVRaj0SjAV3j-1">
          <mxGeometry x="65" y="740" width="40" height="30" as="geometry" />
        </mxCell>
        <mxCell id="WMfOsqNfYVRaj0SjAV3j-87" style="edgeStyle=orthogonalEdgeStyle;rounded=0;orthogonalLoop=1;jettySize=auto;html=1;exitX=0;exitY=0.5;exitDx=0;exitDy=0;" edge="1" parent="WMfOsqNfYVRaj0SjAV3j-1" source="WMfOsqNfYVRaj0SjAV3j-80">
          <mxGeometry relative="1" as="geometry">
            <mxPoint x="103" y="560" as="targetPoint" />
            <Array as="points">
              <mxPoint x="21" y="650" />
              <mxPoint x="21" y="560" />
            </Array>
          </mxGeometry>
        </mxCell>
        <mxCell id="WMfOsqNfYVRaj0SjAV3j-88" value="No" style="text;html=1;align=center;verticalAlign=middle;resizable=0;points=[];autosize=1;strokeColor=none;fillColor=none;" vertex="1" parent="WMfOsqNfYVRaj0SjAV3j-1">
          <mxGeometry x="-15" y="590" width="40" height="30" as="geometry" />
        </mxCell>
        <mxCell id="WMfOsqNfYVRaj0SjAV3j-67" value="程式開始" style="strokeWidth=1;html=1;shape=mxgraph.flowchart.start_1;whiteSpace=wrap;" vertex="1" parent="WMfOsqNfYVRaj0SjAV3j-1">
          <mxGeometry x="52.5" y="60" width="100" height="60" as="geometry" />
        </mxCell>
        <mxCell id="WMfOsqNfYVRaj0SjAV3j-69" value="" style="edgeStyle=orthogonalEdgeStyle;rounded=0;orthogonalLoop=1;jettySize=auto;html=1;" edge="1" parent="WMfOsqNfYVRaj0SjAV3j-1" source="WMfOsqNfYVRaj0SjAV3j-67" target="WMfOsqNfYVRaj0SjAV3j-68">
          <mxGeometry relative="1" as="geometry" />
        </mxCell>
        <mxCell id="WMfOsqNfYVRaj0SjAV3j-155" value="" style="edgeStyle=orthogonalEdgeStyle;rounded=0;orthogonalLoop=1;jettySize=auto;html=1;" edge="1" parent="WMfOsqNfYVRaj0SjAV3j-1" target="WMfOsqNfYVRaj0SjAV3j-158">
          <mxGeometry relative="1" as="geometry">
            <mxPoint x="389" y="479" as="sourcePoint" />
          </mxGeometry>
        </mxCell>
        <mxCell id="WMfOsqNfYVRaj0SjAV3j-158" value="是否為新連線?" style="rhombus;whiteSpace=wrap;html=1;" vertex="1" parent="WMfOsqNfYVRaj0SjAV3j-1">
          <mxGeometry x="326.5" y="564" width="125" height="130" as="geometry" />
        </mxCell>
        <mxCell id="WMfOsqNfYVRaj0SjAV3j-160" value="接收來自客戶端&lt;br&gt;的圖片資訊" style="whiteSpace=wrap;html=1;" vertex="1" parent="WMfOsqNfYVRaj0SjAV3j-1">
          <mxGeometry x="329" y="809" width="120" height="60" as="geometry" />
        </mxCell>
        <mxCell id="WMfOsqNfYVRaj0SjAV3j-156" value="" style="edgeStyle=orthogonalEdgeStyle;rounded=0;orthogonalLoop=1;jettySize=auto;html=1;" edge="1" parent="WMfOsqNfYVRaj0SjAV3j-1" source="WMfOsqNfYVRaj0SjAV3j-158" target="WMfOsqNfYVRaj0SjAV3j-160">
          <mxGeometry relative="1" as="geometry" />
        </mxCell>
        <mxCell id="WMfOsqNfYVRaj0SjAV3j-162" value="上傳圖片資訊到RabbitMQ伺服器" style="whiteSpace=wrap;html=1;" vertex="1" parent="WMfOsqNfYVRaj0SjAV3j-1">
          <mxGeometry x="329" y="949" width="120" height="60" as="geometry" />
        </mxCell>
        <mxCell id="WMfOsqNfYVRaj0SjAV3j-159" value="" style="edgeStyle=orthogonalEdgeStyle;rounded=0;orthogonalLoop=1;jettySize=auto;html=1;" edge="1" parent="WMfOsqNfYVRaj0SjAV3j-1" source="WMfOsqNfYVRaj0SjAV3j-160" target="WMfOsqNfYVRaj0SjAV3j-162">
          <mxGeometry relative="1" as="geometry" />
        </mxCell>
        <mxCell id="WMfOsqNfYVRaj0SjAV3j-163" value="回傳處理結果&lt;br&gt;給客戶端" style="whiteSpace=wrap;html=1;" vertex="1" parent="WMfOsqNfYVRaj0SjAV3j-1">
          <mxGeometry x="329" y="1089" width="120" height="60" as="geometry" />
        </mxCell>
        <mxCell id="WMfOsqNfYVRaj0SjAV3j-161" value="" style="edgeStyle=orthogonalEdgeStyle;rounded=0;orthogonalLoop=1;jettySize=auto;html=1;" edge="1" parent="WMfOsqNfYVRaj0SjAV3j-1" source="WMfOsqNfYVRaj0SjAV3j-162" target="WMfOsqNfYVRaj0SjAV3j-163">
          <mxGeometry relative="1" as="geometry" />
        </mxCell>
        <mxCell id="WMfOsqNfYVRaj0SjAV3j-165" value="產生客戶端UUID" style="whiteSpace=wrap;html=1;" vertex="1" parent="WMfOsqNfYVRaj0SjAV3j-1">
          <mxGeometry x="530.5" y="599" width="120" height="60" as="geometry" />
        </mxCell>
        <mxCell id="WMfOsqNfYVRaj0SjAV3j-157" value="" style="edgeStyle=orthogonalEdgeStyle;rounded=0;orthogonalLoop=1;jettySize=auto;html=1;entryX=0;entryY=0.5;entryDx=0;entryDy=0;" edge="1" parent="WMfOsqNfYVRaj0SjAV3j-1" source="WMfOsqNfYVRaj0SjAV3j-158" target="WMfOsqNfYVRaj0SjAV3j-165">
          <mxGeometry relative="1" as="geometry">
            <mxPoint x="531.5" y="629" as="targetPoint" />
          </mxGeometry>
        </mxCell>
        <mxCell id="WMfOsqNfYVRaj0SjAV3j-166" value="Yes" style="text;html=1;align=center;verticalAlign=middle;resizable=0;points=[];autosize=1;strokeColor=none;fillColor=none;" vertex="1" parent="WMfOsqNfYVRaj0SjAV3j-1">
          <mxGeometry x="456.5" y="599" width="40" height="30" as="geometry" />
        </mxCell>
        <mxCell id="WMfOsqNfYVRaj0SjAV3j-167" value="No" style="text;html=1;align=center;verticalAlign=middle;resizable=0;points=[];autosize=1;strokeColor=none;fillColor=none;" vertex="1" parent="WMfOsqNfYVRaj0SjAV3j-1">
          <mxGeometry x="386.5" y="720" width="40" height="30" as="geometry" />
        </mxCell>
        <mxCell id="WMfOsqNfYVRaj0SjAV3j-168" style="edgeStyle=orthogonalEdgeStyle;rounded=0;orthogonalLoop=1;jettySize=auto;html=1;" edge="1" parent="WMfOsqNfYVRaj0SjAV3j-1" source="WMfOsqNfYVRaj0SjAV3j-169">
          <mxGeometry relative="1" as="geometry">
            <mxPoint x="389.5" y="1050" as="targetPoint" />
            <Array as="points">
              <mxPoint x="590.5" y="1050" />
              <mxPoint x="389.5" y="1050" />
            </Array>
          </mxGeometry>
        </mxCell>
        <mxCell id="WMfOsqNfYVRaj0SjAV3j-169" value="紀錄客戶端資訊&lt;br&gt;(產生ClientInfo)" style="whiteSpace=wrap;html=1;" vertex="1" parent="WMfOsqNfYVRaj0SjAV3j-1">
          <mxGeometry x="530.5" y="809" width="120" height="60" as="geometry" />
        </mxCell>
        <mxCell id="WMfOsqNfYVRaj0SjAV3j-164" style="edgeStyle=orthogonalEdgeStyle;rounded=0;orthogonalLoop=1;jettySize=auto;html=1;" edge="1" parent="WMfOsqNfYVRaj0SjAV3j-1" source="WMfOsqNfYVRaj0SjAV3j-165" target="WMfOsqNfYVRaj0SjAV3j-169">
          <mxGeometry relative="1" as="geometry" />
        </mxCell>
        <mxCell id="WMfOsqNfYVRaj0SjAV3j-170" value="客戶端的WebSocket連線進入伺服器" style="whiteSpace=wrap;html=1;" vertex="1" parent="WMfOsqNfYVRaj0SjAV3j-1">
          <mxGeometry x="329" y="420" width="120" height="60" as="geometry" />
        </mxCell>
        <mxCell id="WMfOsqNfYVRaj0SjAV3j-178" value="" style="rounded=0;whiteSpace=wrap;html=1;fillColor=none;" vertex="1" parent="WMfOsqNfYVRaj0SjAV3j-1">
          <mxGeometry x="275" y="105" width="160" height="270" as="geometry" />
        </mxCell>
        <mxCell id="WMfOsqNfYVRaj0SjAV3j-171" value="" style="ellipse;whiteSpace=wrap;html=1;aspect=fixed;" vertex="1" parent="WMfOsqNfYVRaj0SjAV3j-1">
          <mxGeometry x="545" y="155" width="170" height="170" as="geometry" />
        </mxCell>
        <mxCell id="WMfOsqNfYVRaj0SjAV3j-172" value="執行緒使用權" style="rounded=0;whiteSpace=wrap;html=1;" vertex="1" parent="WMfOsqNfYVRaj0SjAV3j-1">
          <mxGeometry x="579.5" y="207.5" width="101" height="65" as="geometry" />
        </mxCell>
        <mxCell id="WMfOsqNfYVRaj0SjAV3j-173" style="edgeStyle=orthogonalEdgeStyle;rounded=0;orthogonalLoop=1;jettySize=auto;html=1;entryX=-0.003;entryY=0.445;entryDx=0;entryDy=0;entryPerimeter=0;" edge="1" parent="WMfOsqNfYVRaj0SjAV3j-1" source="WMfOsqNfYVRaj0SjAV3j-174" target="WMfOsqNfYVRaj0SjAV3j-171">
          <mxGeometry relative="1" as="geometry" />
        </mxCell>
        <mxCell id="WMfOsqNfYVRaj0SjAV3j-174" value="註冊任務1&lt;br&gt;處理WebSocket連線" style="rounded=0;whiteSpace=wrap;html=1;" vertex="1" parent="WMfOsqNfYVRaj0SjAV3j-1">
          <mxGeometry x="295" y="145" width="120" height="60" as="geometry" />
        </mxCell>
        <mxCell id="WMfOsqNfYVRaj0SjAV3j-175" style="edgeStyle=orthogonalEdgeStyle;rounded=0;orthogonalLoop=1;jettySize=auto;html=1;entryX=-0.003;entryY=0.559;entryDx=0;entryDy=0;entryPerimeter=0;" edge="1" parent="WMfOsqNfYVRaj0SjAV3j-1" source="WMfOsqNfYVRaj0SjAV3j-176" target="WMfOsqNfYVRaj0SjAV3j-171">
          <mxGeometry relative="1" as="geometry" />
        </mxCell>
        <mxCell id="WMfOsqNfYVRaj0SjAV3j-176" value="註冊任務2&lt;br&gt;監聽RabbitMQ伺服器" style="rounded=0;whiteSpace=wrap;html=1;" vertex="1" parent="WMfOsqNfYVRaj0SjAV3j-1">
          <mxGeometry x="295" y="272.5" width="120" height="60" as="geometry" />
        </mxCell>
        <mxCell id="WMfOsqNfYVRaj0SjAV3j-177" value="&lt;font style=&quot;font-size: 20px;&quot;&gt;註冊的任務&lt;/font&gt;" style="text;html=1;align=center;verticalAlign=middle;resizable=0;points=[];autosize=1;strokeColor=none;fillColor=none;" vertex="1" parent="WMfOsqNfYVRaj0SjAV3j-1">
          <mxGeometry x="295" y="45" width="120" height="40" as="geometry" />
        </mxCell>
        <mxCell id="WMfOsqNfYVRaj0SjAV3j-179" value="&lt;div style=&quot;text-align: center;&quot;&gt;&lt;span style=&quot;background-color: initial; font-size: 20px;&quot;&gt;事件迴圈&lt;/span&gt;&lt;/div&gt;" style="text;whiteSpace=wrap;html=1;" vertex="1" parent="WMfOsqNfYVRaj0SjAV3j-1">
          <mxGeometry x="590.5" y="45" width="90" height="40" as="geometry" />
        </mxCell>
        <mxCell id="WMfOsqNfYVRaj0SjAV3j-188" value="RabbitMQ伺服器的&lt;br&gt;Result_Queue有資料" style="whiteSpace=wrap;html=1;" vertex="1" parent="WMfOsqNfYVRaj0SjAV3j-1">
          <mxGeometry x="835" y="155" width="120" height="60" as="geometry" />
        </mxCell>
        <mxCell id="WMfOsqNfYVRaj0SjAV3j-190" value="取出OCR結果" style="whiteSpace=wrap;html=1;" vertex="1" parent="WMfOsqNfYVRaj0SjAV3j-1">
          <mxGeometry x="835" y="295" width="120" height="60" as="geometry" />
        </mxCell>
        <mxCell id="WMfOsqNfYVRaj0SjAV3j-187" value="" style="edgeStyle=orthogonalEdgeStyle;rounded=0;orthogonalLoop=1;jettySize=auto;html=1;" edge="1" parent="WMfOsqNfYVRaj0SjAV3j-1" source="WMfOsqNfYVRaj0SjAV3j-188" target="WMfOsqNfYVRaj0SjAV3j-190">
          <mxGeometry relative="1" as="geometry" />
        </mxCell>
        <mxCell id="WMfOsqNfYVRaj0SjAV3j-192" value="依照Client_UUID尋找對應的客戶端連線" style="whiteSpace=wrap;html=1;" vertex="1" parent="WMfOsqNfYVRaj0SjAV3j-1">
          <mxGeometry x="835" y="435" width="120" height="60" as="geometry" />
        </mxCell>
        <mxCell id="WMfOsqNfYVRaj0SjAV3j-189" value="" style="edgeStyle=orthogonalEdgeStyle;rounded=0;orthogonalLoop=1;jettySize=auto;html=1;" edge="1" parent="WMfOsqNfYVRaj0SjAV3j-1" source="WMfOsqNfYVRaj0SjAV3j-190" target="WMfOsqNfYVRaj0SjAV3j-192">
          <mxGeometry relative="1" as="geometry" />
        </mxCell>
        <mxCell id="WMfOsqNfYVRaj0SjAV3j-193" value="使用客戶端連線&lt;br&gt;返回OCR結果" style="whiteSpace=wrap;html=1;" vertex="1" parent="WMfOsqNfYVRaj0SjAV3j-1">
          <mxGeometry x="835" y="575" width="120" height="60" as="geometry" />
        </mxCell>
        <mxCell id="WMfOsqNfYVRaj0SjAV3j-191" value="" style="edgeStyle=orthogonalEdgeStyle;rounded=0;orthogonalLoop=1;jettySize=auto;html=1;" edge="1" parent="WMfOsqNfYVRaj0SjAV3j-1" source="WMfOsqNfYVRaj0SjAV3j-192" target="WMfOsqNfYVRaj0SjAV3j-193">
          <mxGeometry relative="1" as="geometry" />
        </mxCell>
        <mxCell id="011NTTUWW6af43eOhtOa-1" value="系統架構、通訊" style="swimlane;whiteSpace=wrap;html=1;" parent="1" vertex="1" collapsed="1">
          <mxGeometry x="15" y="40" width="120" height="30" as="geometry">
            <mxRectangle x="20" y="40" width="1050" height="1010" as="alternateBounds" />
          </mxGeometry>
        </mxCell>
        <mxCell id="KqupfGYwpNCgRnsgn26B-1" value="" style="rounded=0;whiteSpace=wrap;html=1;" parent="011NTTUWW6af43eOhtOa-1" vertex="1">
          <mxGeometry x="33.75" y="90" width="140" height="370" as="geometry" />
        </mxCell>
        <mxCell id="KqupfGYwpNCgRnsgn26B-2" value="Web" style="rounded=0;whiteSpace=wrap;html=1;fillColor=#d5e8d4;strokeColor=#82b366;" parent="011NTTUWW6af43eOhtOa-1" vertex="1">
          <mxGeometry x="48.75" y="130" width="110" height="60" as="geometry" />
        </mxCell>
        <mxCell id="KqupfGYwpNCgRnsgn26B-5" value="Client" style="text;html=1;strokeColor=none;fillColor=none;align=center;verticalAlign=middle;whiteSpace=wrap;rounded=0;" parent="011NTTUWW6af43eOhtOa-1" vertex="1">
          <mxGeometry x="73.75" y="50" width="60" height="30" as="geometry" />
        </mxCell>
        <mxCell id="KqupfGYwpNCgRnsgn26B-6" value="" style="rounded=0;whiteSpace=wrap;html=1;" parent="011NTTUWW6af43eOhtOa-1" vertex="1">
          <mxGeometry x="303.75" y="90" width="140" height="370" as="geometry" />
        </mxCell>
        <mxCell id="KqupfGYwpNCgRnsgn26B-8" value="" style="endArrow=classic;html=1;rounded=0;exitX=1.014;exitY=0.091;exitDx=0;exitDy=0;exitPerimeter=0;entryX=-0.021;entryY=0.199;entryDx=0;entryDy=0;entryPerimeter=0;" parent="011NTTUWW6af43eOhtOa-1" source="KqupfGYwpNCgRnsgn26B-1" target="KqupfGYwpNCgRnsgn26B-6" edge="1">
          <mxGeometry width="50" height="50" relative="1" as="geometry">
            <mxPoint x="393.75" y="290" as="sourcePoint" />
            <mxPoint x="443.75" y="240" as="targetPoint" />
          </mxGeometry>
        </mxCell>
        <mxCell id="KqupfGYwpNCgRnsgn26B-10" value="" style="endArrow=classic;html=1;rounded=0;entryX=1.029;entryY=0.382;entryDx=0;entryDy=0;entryPerimeter=0;exitX=-0.014;exitY=0.323;exitDx=0;exitDy=0;exitPerimeter=0;" parent="011NTTUWW6af43eOhtOa-1" source="KqupfGYwpNCgRnsgn26B-6" target="KqupfGYwpNCgRnsgn26B-1" edge="1">
          <mxGeometry width="50" height="50" relative="1" as="geometry">
            <mxPoint x="393.75" y="290" as="sourcePoint" />
            <mxPoint x="443.75" y="240" as="targetPoint" />
          </mxGeometry>
        </mxCell>
        <mxCell id="KqupfGYwpNCgRnsgn26B-14" value="" style="endArrow=classic;startArrow=classic;html=1;rounded=0;exitX=1;exitY=0.574;exitDx=0;exitDy=0;exitPerimeter=0;entryX=0.014;entryY=0.574;entryDx=0;entryDy=0;entryPerimeter=0;" parent="011NTTUWW6af43eOhtOa-1" source="KqupfGYwpNCgRnsgn26B-1" target="KqupfGYwpNCgRnsgn26B-6" edge="1">
          <mxGeometry width="50" height="50" relative="1" as="geometry">
            <mxPoint x="393.75" y="290" as="sourcePoint" />
            <mxPoint x="443.75" y="240" as="targetPoint" />
          </mxGeometry>
        </mxCell>
        <mxCell id="KqupfGYwpNCgRnsgn26B-7" value="WebSocket Server" style="text;html=1;strokeColor=none;fillColor=none;align=center;verticalAlign=middle;whiteSpace=wrap;rounded=0;" parent="011NTTUWW6af43eOhtOa-1" vertex="1">
          <mxGeometry x="318.75" y="50" width="110" height="30" as="geometry" />
        </mxCell>
        <mxCell id="KqupfGYwpNCgRnsgn26B-9" value="Handshake" style="text;html=1;align=center;verticalAlign=middle;resizable=0;points=[];autosize=1;strokeColor=none;fillColor=none;" parent="011NTTUWW6af43eOhtOa-1" vertex="1">
          <mxGeometry x="203.75" y="108" width="80" height="30" as="geometry" />
        </mxCell>
        <mxCell id="KqupfGYwpNCgRnsgn26B-11" value="Acknowledge" style="text;html=1;align=center;verticalAlign=middle;resizable=0;points=[];autosize=1;strokeColor=none;fillColor=none;" parent="011NTTUWW6af43eOhtOa-1" vertex="1">
          <mxGeometry x="193.75" y="180" width="90" height="30" as="geometry" />
        </mxCell>
        <mxCell id="KqupfGYwpNCgRnsgn26B-15" value="Bi-direction Messages" style="text;html=1;align=center;verticalAlign=middle;resizable=0;points=[];autosize=1;strokeColor=none;fillColor=none;" parent="011NTTUWW6af43eOhtOa-1" vertex="1">
          <mxGeometry x="168.75" y="270" width="140" height="30" as="geometry" />
        </mxCell>
        <mxCell id="KqupfGYwpNCgRnsgn26B-16" value="" style="endArrow=classic;startArrow=classic;html=1;rounded=0;exitX=1;exitY=0.574;exitDx=0;exitDy=0;exitPerimeter=0;entryX=0.014;entryY=0.574;entryDx=0;entryDy=0;entryPerimeter=0;" parent="011NTTUWW6af43eOhtOa-1" edge="1">
          <mxGeometry width="50" height="50" relative="1" as="geometry">
            <mxPoint x="173.75" y="422" as="sourcePoint" />
            <mxPoint x="305.75" y="422" as="targetPoint" />
          </mxGeometry>
        </mxCell>
        <mxCell id="KqupfGYwpNCgRnsgn26B-17" value="Connection End" style="text;html=1;align=center;verticalAlign=middle;resizable=0;points=[];autosize=1;strokeColor=none;fillColor=none;" parent="011NTTUWW6af43eOhtOa-1" vertex="1">
          <mxGeometry x="183.75" y="390" width="110" height="30" as="geometry" />
        </mxCell>
        <mxCell id="KqupfGYwpNCgRnsgn26B-19" value="" style="rounded=0;whiteSpace=wrap;html=1;" parent="011NTTUWW6af43eOhtOa-1" vertex="1">
          <mxGeometry x="563.75" y="90" width="140" height="370" as="geometry" />
        </mxCell>
        <mxCell id="KqupfGYwpNCgRnsgn26B-20" value="RabbitMQ Server" style="text;html=1;strokeColor=none;fillColor=none;align=center;verticalAlign=middle;whiteSpace=wrap;rounded=0;" parent="011NTTUWW6af43eOhtOa-1" vertex="1">
          <mxGeometry x="578.75" y="50" width="110" height="30" as="geometry" />
        </mxCell>
        <mxCell id="KqupfGYwpNCgRnsgn26B-22" value="Pending&lt;br&gt;Queue" style="rounded=0;whiteSpace=wrap;html=1;fillColor=#ffe6cc;strokeColor=#d79b00;" parent="011NTTUWW6af43eOhtOa-1" vertex="1">
          <mxGeometry x="578.75" y="130" width="110" height="110" as="geometry" />
        </mxCell>
        <mxCell id="KqupfGYwpNCgRnsgn26B-24" style="edgeStyle=orthogonalEdgeStyle;rounded=0;orthogonalLoop=1;jettySize=auto;html=1;exitX=1;exitY=0.25;exitDx=0;exitDy=0;entryX=0;entryY=0.5;entryDx=0;entryDy=0;" parent="011NTTUWW6af43eOhtOa-1" source="KqupfGYwpNCgRnsgn26B-6" target="KqupfGYwpNCgRnsgn26B-22" edge="1">
          <mxGeometry relative="1" as="geometry">
            <Array as="points">
              <mxPoint x="443.75" y="185" />
            </Array>
          </mxGeometry>
        </mxCell>
        <mxCell id="KqupfGYwpNCgRnsgn26B-25" style="edgeStyle=orthogonalEdgeStyle;rounded=0;orthogonalLoop=1;jettySize=auto;html=1;exitX=0;exitY=0.5;exitDx=0;exitDy=0;" parent="011NTTUWW6af43eOhtOa-1" source="KqupfGYwpNCgRnsgn26B-23" edge="1">
          <mxGeometry relative="1" as="geometry">
            <mxPoint x="443.75" y="375" as="targetPoint" />
          </mxGeometry>
        </mxCell>
        <mxCell id="KqupfGYwpNCgRnsgn26B-23" value="Result&lt;br&gt;Queue" style="rounded=0;whiteSpace=wrap;html=1;fillColor=#ffe6cc;strokeColor=#d79b00;" parent="011NTTUWW6af43eOhtOa-1" vertex="1">
          <mxGeometry x="578.75" y="320" width="110" height="110" as="geometry" />
        </mxCell>
        <mxCell id="KqupfGYwpNCgRnsgn26B-26" value="&lt;font color=&quot;#ff3333&quot;&gt;JSON Payload&lt;/font&gt;" style="text;html=1;align=center;verticalAlign=middle;resizable=0;points=[];autosize=1;strokeColor=none;fillColor=none;" parent="011NTTUWW6af43eOhtOa-1" vertex="1">
          <mxGeometry x="188.75" y="310" width="100" height="30" as="geometry" />
        </mxCell>
        <mxCell id="KqupfGYwpNCgRnsgn26B-28" value="&lt;font color=&quot;#ff3333&quot;&gt;JSON Payload&lt;br&gt;&lt;/font&gt;" style="text;html=1;align=center;verticalAlign=middle;resizable=0;points=[];autosize=1;strokeColor=none;fillColor=none;" parent="011NTTUWW6af43eOhtOa-1" vertex="1">
          <mxGeometry x="453.75" y="190" width="100" height="30" as="geometry" />
        </mxCell>
        <mxCell id="KqupfGYwpNCgRnsgn26B-29" value="&lt;font color=&quot;#ff3333&quot;&gt;JSON Payload&lt;/font&gt;" style="text;html=1;align=center;verticalAlign=middle;resizable=0;points=[];autosize=1;strokeColor=none;fillColor=none;" parent="011NTTUWW6af43eOhtOa-1" vertex="1">
          <mxGeometry x="453.75" y="385" width="100" height="30" as="geometry" />
        </mxCell>
        <mxCell id="KqupfGYwpNCgRnsgn26B-30" value="Application" style="rounded=0;whiteSpace=wrap;html=1;fillColor=#d5e8d4;strokeColor=#82b366;" parent="011NTTUWW6af43eOhtOa-1" vertex="1">
          <mxGeometry x="48.75" y="250" width="110" height="60" as="geometry" />
        </mxCell>
        <mxCell id="KqupfGYwpNCgRnsgn26B-31" value="Program" style="rounded=0;whiteSpace=wrap;html=1;fillColor=#d5e8d4;strokeColor=#82b366;" parent="011NTTUWW6af43eOhtOa-1" vertex="1">
          <mxGeometry x="48.75" y="370" width="110" height="60" as="geometry" />
        </mxCell>
        <mxCell id="KqupfGYwpNCgRnsgn26B-32" value="Producer" style="text;html=1;align=center;verticalAlign=middle;resizable=0;points=[];autosize=1;strokeColor=none;fillColor=none;" parent="011NTTUWW6af43eOhtOa-1" vertex="1">
          <mxGeometry x="468.75" y="150" width="70" height="30" as="geometry" />
        </mxCell>
        <mxCell id="KqupfGYwpNCgRnsgn26B-33" value="Consumer" style="text;html=1;align=center;verticalAlign=middle;resizable=0;points=[];autosize=1;strokeColor=none;fillColor=none;" parent="011NTTUWW6af43eOhtOa-1" vertex="1">
          <mxGeometry x="463.75" y="340" width="80" height="30" as="geometry" />
        </mxCell>
        <mxCell id="KqupfGYwpNCgRnsgn26B-40" value="Client Message&lt;br style=&quot;border-color: var(--border-color);&quot;&gt;JSON Payload" style="swimlane;fontStyle=1;align=center;verticalAlign=top;childLayout=stackLayout;horizontal=1;startSize=40;horizontalStack=0;resizeParent=1;resizeParentMax=0;resizeLast=0;collapsible=0;marginBottom=0;html=1;whiteSpace=wrap;" parent="011NTTUWW6af43eOhtOa-1" vertex="1">
          <mxGeometry x="48.75" y="585" width="140" height="70" as="geometry" />
        </mxCell>
        <mxCell id="qoFY-LqlF0WkJDyeRGyF-2" value="ClientName" style="text;html=1;strokeColor=none;fillColor=none;align=center;verticalAlign=middle;spacingLeft=4;spacingRight=4;overflow=hidden;rotatable=0;points=[[0,0.5],[1,0.5]];portConstraint=eastwest;whiteSpace=wrap;" parent="KqupfGYwpNCgRnsgn26B-40" vertex="1">
          <mxGeometry y="40" width="140" height="30" as="geometry" />
        </mxCell>
        <mxCell id="KqupfGYwpNCgRnsgn26B-43" value="Server Message&lt;br style=&quot;border-color: var(--border-color);&quot;&gt;JSON Payload" style="swimlane;fontStyle=1;align=center;verticalAlign=top;childLayout=stackLayout;horizontal=1;startSize=40;horizontalStack=0;resizeParent=1;resizeParentMax=0;resizeLast=0;collapsible=0;marginBottom=0;html=1;whiteSpace=wrap;" parent="011NTTUWW6af43eOhtOa-1" vertex="1">
          <mxGeometry x="318.75" y="585" width="140" height="70" as="geometry" />
        </mxCell>
        <mxCell id="KqupfGYwpNCgRnsgn26B-47" value="ClientUUID" style="text;html=1;strokeColor=none;fillColor=none;align=center;verticalAlign=middle;spacingLeft=4;spacingRight=4;overflow=hidden;rotatable=0;points=[[0,0.5],[1,0.5]];portConstraint=eastwest;whiteSpace=wrap;" parent="KqupfGYwpNCgRnsgn26B-43" vertex="1">
          <mxGeometry y="40" width="140" height="30" as="geometry" />
        </mxCell>
        <mxCell id="PRVAVNiG4iK3DcqKCOQi-12" style="edgeStyle=orthogonalEdgeStyle;rounded=0;orthogonalLoop=1;jettySize=auto;html=1;exitX=1;exitY=0.25;exitDx=0;exitDy=0;entryX=0;entryY=0.25;entryDx=0;entryDy=0;" parent="011NTTUWW6af43eOhtOa-1" source="KqupfGYwpNCgRnsgn26B-40" target="KqupfGYwpNCgRnsgn26B-43" edge="1">
          <mxGeometry relative="1" as="geometry" />
        </mxCell>
        <mxCell id="PRVAVNiG4iK3DcqKCOQi-13" style="edgeStyle=orthogonalEdgeStyle;rounded=0;orthogonalLoop=1;jettySize=auto;html=1;exitX=0;exitY=0.5;exitDx=0;exitDy=0;" parent="011NTTUWW6af43eOhtOa-1" source="KqupfGYwpNCgRnsgn26B-47" target="qoFY-LqlF0WkJDyeRGyF-2" edge="1">
          <mxGeometry relative="1" as="geometry" />
        </mxCell>
        <mxCell id="KqupfGYwpNCgRnsgn26B-48" value="RabbitMQ&lt;br&gt;JSON Payload" style="swimlane;fontStyle=1;align=center;verticalAlign=top;childLayout=stackLayout;horizontal=1;startSize=40;horizontalStack=0;resizeParent=1;resizeParentMax=0;resizeLast=0;collapsible=0;marginBottom=0;html=1;whiteSpace=wrap;" parent="011NTTUWW6af43eOhtOa-1" vertex="1">
          <mxGeometry x="608.75" y="560" width="140" height="160" as="geometry" />
        </mxCell>
        <mxCell id="j6kptWZ_kedB2TX_4ibh-8" value="ClientUUID" style="text;html=1;strokeColor=none;fillColor=none;align=center;verticalAlign=middle;spacingLeft=4;spacingRight=4;overflow=hidden;rotatable=0;points=[[0,0.5],[1,0.5]];portConstraint=eastwest;whiteSpace=wrap;" parent="KqupfGYwpNCgRnsgn26B-48" vertex="1">
          <mxGeometry y="40" width="140" height="30" as="geometry" />
        </mxCell>
        <mxCell id="HzzBQW3_Ap6hoxM3S4qQ-1" value="ImageFileName" style="text;html=1;strokeColor=none;fillColor=none;align=center;verticalAlign=middle;spacingLeft=4;spacingRight=4;overflow=hidden;rotatable=0;points=[[0,0.5],[1,0.5]];portConstraint=eastwest;whiteSpace=wrap;" parent="KqupfGYwpNCgRnsgn26B-48" vertex="1">
          <mxGeometry y="70" width="140" height="30" as="geometry" />
        </mxCell>
        <mxCell id="KqupfGYwpNCgRnsgn26B-50" value="ImageBase64Data" style="text;html=1;strokeColor=none;fillColor=none;align=center;verticalAlign=middle;spacingLeft=4;spacingRight=4;overflow=hidden;rotatable=0;points=[[0,0.5],[1,0.5]];portConstraint=eastwest;whiteSpace=wrap;" parent="KqupfGYwpNCgRnsgn26B-48" vertex="1">
          <mxGeometry y="100" width="140" height="30" as="geometry" />
        </mxCell>
        <mxCell id="KqupfGYwpNCgRnsgn26B-51" value="OcrResult" style="text;html=1;strokeColor=none;fillColor=none;align=center;verticalAlign=middle;spacingLeft=4;spacingRight=4;overflow=hidden;rotatable=0;points=[[0,0.5],[1,0.5]];portConstraint=eastwest;whiteSpace=wrap;" parent="KqupfGYwpNCgRnsgn26B-48" vertex="1">
          <mxGeometry y="130" width="140" height="30" as="geometry" />
        </mxCell>
        <mxCell id="KqupfGYwpNCgRnsgn26B-66" style="edgeStyle=orthogonalEdgeStyle;rounded=0;orthogonalLoop=1;jettySize=auto;html=1;exitX=0;exitY=0.75;exitDx=0;exitDy=0;entryX=1;entryY=0.5;entryDx=0;entryDy=0;" parent="011NTTUWW6af43eOhtOa-1" source="KqupfGYwpNCgRnsgn26B-52" target="KqupfGYwpNCgRnsgn26B-23" edge="1">
          <mxGeometry relative="1" as="geometry">
            <Array as="points">
              <mxPoint x="813.75" y="375" />
            </Array>
          </mxGeometry>
        </mxCell>
        <mxCell id="KqupfGYwpNCgRnsgn26B-52" value="" style="rounded=0;whiteSpace=wrap;html=1;" parent="011NTTUWW6af43eOhtOa-1" vertex="1">
          <mxGeometry x="813.75" y="90" width="140" height="370" as="geometry" />
        </mxCell>
        <mxCell id="KqupfGYwpNCgRnsgn26B-62" style="edgeStyle=orthogonalEdgeStyle;rounded=0;orthogonalLoop=1;jettySize=auto;html=1;exitX=1;exitY=0.5;exitDx=0;exitDy=0;entryX=0;entryY=0.25;entryDx=0;entryDy=0;" parent="011NTTUWW6af43eOhtOa-1" source="KqupfGYwpNCgRnsgn26B-22" target="KqupfGYwpNCgRnsgn26B-52" edge="1">
          <mxGeometry relative="1" as="geometry">
            <Array as="points">
              <mxPoint x="688.75" y="183" />
              <mxPoint x="751.75" y="183" />
            </Array>
          </mxGeometry>
        </mxCell>
        <mxCell id="KqupfGYwpNCgRnsgn26B-53" value="Process 1" style="rounded=0;whiteSpace=wrap;html=1;fillColor=#dae8fc;strokeColor=#6c8ebf;" parent="011NTTUWW6af43eOhtOa-1" vertex="1">
          <mxGeometry x="828.75" y="130" width="110" height="60" as="geometry" />
        </mxCell>
        <mxCell id="KqupfGYwpNCgRnsgn26B-54" value="OCR Server" style="text;html=1;strokeColor=none;fillColor=none;align=center;verticalAlign=middle;whiteSpace=wrap;rounded=0;" parent="011NTTUWW6af43eOhtOa-1" vertex="1">
          <mxGeometry x="848.75" y="50" width="70" height="30" as="geometry" />
        </mxCell>
        <mxCell id="KqupfGYwpNCgRnsgn26B-55" value="Process 2" style="rounded=0;whiteSpace=wrap;html=1;fillColor=#dae8fc;strokeColor=#6c8ebf;" parent="011NTTUWW6af43eOhtOa-1" vertex="1">
          <mxGeometry x="828.75" y="210" width="110" height="60" as="geometry" />
        </mxCell>
        <mxCell id="KqupfGYwpNCgRnsgn26B-56" value="....." style="rounded=0;whiteSpace=wrap;html=1;fillColor=#dae8fc;strokeColor=#6c8ebf;" parent="011NTTUWW6af43eOhtOa-1" vertex="1">
          <mxGeometry x="828.75" y="370" width="110" height="60" as="geometry" />
        </mxCell>
        <mxCell id="KqupfGYwpNCgRnsgn26B-57" value="Process 3" style="rounded=0;whiteSpace=wrap;html=1;fillColor=#dae8fc;strokeColor=#6c8ebf;" parent="011NTTUWW6af43eOhtOa-1" vertex="1">
          <mxGeometry x="828.75" y="290" width="110" height="60" as="geometry" />
        </mxCell>
        <mxCell id="KqupfGYwpNCgRnsgn26B-58" value="OCR Server&lt;br&gt;JSON Payload" style="swimlane;fontStyle=1;align=center;verticalAlign=top;childLayout=stackLayout;horizontal=1;startSize=40;horizontalStack=0;resizeParent=1;resizeParentMax=0;resizeLast=0;collapsible=0;marginBottom=0;html=1;whiteSpace=wrap;" parent="011NTTUWW6af43eOhtOa-1" vertex="1">
          <mxGeometry x="858.75" y="560" width="140" height="130" as="geometry" />
        </mxCell>
        <mxCell id="j6kptWZ_kedB2TX_4ibh-9" value="ClientUUID" style="text;html=1;strokeColor=none;fillColor=none;align=center;verticalAlign=middle;spacingLeft=4;spacingRight=4;overflow=hidden;rotatable=0;points=[[0,0.5],[1,0.5]];portConstraint=eastwest;whiteSpace=wrap;" parent="KqupfGYwpNCgRnsgn26B-58" vertex="1">
          <mxGeometry y="40" width="140" height="30" as="geometry" />
        </mxCell>
        <mxCell id="HzzBQW3_Ap6hoxM3S4qQ-2" value="ImageFileName" style="text;html=1;strokeColor=none;fillColor=none;align=center;verticalAlign=middle;spacingLeft=4;spacingRight=4;overflow=hidden;rotatable=0;points=[[0,0.5],[1,0.5]];portConstraint=eastwest;whiteSpace=wrap;" parent="KqupfGYwpNCgRnsgn26B-58" vertex="1">
          <mxGeometry y="70" width="140" height="30" as="geometry" />
        </mxCell>
        <mxCell id="KqupfGYwpNCgRnsgn26B-61" value="OcrResult" style="text;html=1;strokeColor=none;fillColor=none;align=center;verticalAlign=middle;spacingLeft=4;spacingRight=4;overflow=hidden;rotatable=0;points=[[0,0.5],[1,0.5]];portConstraint=eastwest;whiteSpace=wrap;" parent="KqupfGYwpNCgRnsgn26B-58" vertex="1">
          <mxGeometry y="100" width="140" height="30" as="geometry" />
        </mxCell>
        <mxCell id="HzzBQW3_Ap6hoxM3S4qQ-3" style="edgeStyle=orthogonalEdgeStyle;rounded=0;orthogonalLoop=1;jettySize=auto;html=1;entryX=0;entryY=0.5;entryDx=0;entryDy=0;" parent="011NTTUWW6af43eOhtOa-1" source="j6kptWZ_kedB2TX_4ibh-8" target="j6kptWZ_kedB2TX_4ibh-9" edge="1">
          <mxGeometry relative="1" as="geometry" />
        </mxCell>
        <mxCell id="HzzBQW3_Ap6hoxM3S4qQ-4" style="edgeStyle=orthogonalEdgeStyle;rounded=0;orthogonalLoop=1;jettySize=auto;html=1;exitX=0;exitY=0.5;exitDx=0;exitDy=0;entryX=1;entryY=0.5;entryDx=0;entryDy=0;" parent="011NTTUWW6af43eOhtOa-1" source="HzzBQW3_Ap6hoxM3S4qQ-2" target="HzzBQW3_Ap6hoxM3S4qQ-1" edge="1">
          <mxGeometry relative="1" as="geometry" />
        </mxCell>
        <mxCell id="KqupfGYwpNCgRnsgn26B-67" value="&lt;font color=&quot;#ff3333&quot;&gt;JSON Payload&lt;/font&gt;" style="text;html=1;align=center;verticalAlign=middle;resizable=0;points=[];autosize=1;strokeColor=none;fillColor=none;" parent="011NTTUWW6af43eOhtOa-1" vertex="1">
          <mxGeometry x="703.75" y="190" width="100" height="30" as="geometry" />
        </mxCell>
        <mxCell id="KqupfGYwpNCgRnsgn26B-68" value="Consumer" style="text;html=1;align=center;verticalAlign=middle;resizable=0;points=[];autosize=1;strokeColor=none;fillColor=none;" parent="011NTTUWW6af43eOhtOa-1" vertex="1">
          <mxGeometry x="713.75" y="145" width="80" height="30" as="geometry" />
        </mxCell>
        <mxCell id="KqupfGYwpNCgRnsgn26B-69" value="&lt;font color=&quot;#ff3333&quot;&gt;JSON Payload&lt;/font&gt;" style="text;html=1;align=center;verticalAlign=middle;resizable=0;points=[];autosize=1;strokeColor=none;fillColor=none;" parent="011NTTUWW6af43eOhtOa-1" vertex="1">
          <mxGeometry x="703.75" y="380" width="100" height="30" as="geometry" />
        </mxCell>
        <mxCell id="KqupfGYwpNCgRnsgn26B-70" value="Producer" style="text;html=1;align=center;verticalAlign=middle;resizable=0;points=[];autosize=1;strokeColor=none;fillColor=none;" parent="011NTTUWW6af43eOhtOa-1" vertex="1">
          <mxGeometry x="718.75" y="340" width="70" height="30" as="geometry" />
        </mxCell>
        <mxCell id="j6kptWZ_kedB2TX_4ibh-1" value="Coroutine 1" style="rounded=0;whiteSpace=wrap;html=1;fillColor=#dae8fc;strokeColor=#6c8ebf;" parent="011NTTUWW6af43eOhtOa-1" vertex="1">
          <mxGeometry x="318.75" y="125" width="110" height="60" as="geometry" />
        </mxCell>
        <mxCell id="j6kptWZ_kedB2TX_4ibh-2" value="Coroutine 2" style="rounded=0;whiteSpace=wrap;html=1;fillColor=#dae8fc;strokeColor=#6c8ebf;" parent="011NTTUWW6af43eOhtOa-1" vertex="1">
          <mxGeometry x="318.75" y="205" width="110" height="60" as="geometry" />
        </mxCell>
        <mxCell id="j6kptWZ_kedB2TX_4ibh-3" value="....." style="rounded=0;whiteSpace=wrap;html=1;fillColor=#dae8fc;strokeColor=#6c8ebf;" parent="011NTTUWW6af43eOhtOa-1" vertex="1">
          <mxGeometry x="318.75" y="365" width="110" height="60" as="geometry" />
        </mxCell>
        <mxCell id="j6kptWZ_kedB2TX_4ibh-4" value="Coroutine 3" style="rounded=0;whiteSpace=wrap;html=1;fillColor=#dae8fc;strokeColor=#6c8ebf;" parent="011NTTUWW6af43eOhtOa-1" vertex="1">
          <mxGeometry x="318.75" y="285" width="110" height="60" as="geometry" />
        </mxCell>
        <mxCell id="PRVAVNiG4iK3DcqKCOQi-2" value="Client Message&lt;br style=&quot;border-color: var(--border-color);&quot;&gt;JSON Payload" style="swimlane;fontStyle=1;align=center;verticalAlign=top;childLayout=stackLayout;horizontal=1;startSize=40;horizontalStack=0;resizeParent=1;resizeParentMax=0;resizeLast=0;collapsible=0;marginBottom=0;html=1;whiteSpace=wrap;" parent="011NTTUWW6af43eOhtOa-1" vertex="1">
          <mxGeometry x="48.75" y="850" width="140" height="130" as="geometry" />
        </mxCell>
        <mxCell id="PRVAVNiG4iK3DcqKCOQi-11" value="ClientUUID" style="text;html=1;strokeColor=none;fillColor=none;align=center;verticalAlign=middle;spacingLeft=4;spacingRight=4;overflow=hidden;rotatable=0;points=[[0,0.5],[1,0.5]];portConstraint=eastwest;whiteSpace=wrap;" parent="PRVAVNiG4iK3DcqKCOQi-2" vertex="1">
          <mxGeometry y="40" width="140" height="30" as="geometry" />
        </mxCell>
        <mxCell id="PRVAVNiG4iK3DcqKCOQi-4" value="ImageFileName" style="text;html=1;strokeColor=none;fillColor=none;align=center;verticalAlign=middle;spacingLeft=4;spacingRight=4;overflow=hidden;rotatable=0;points=[[0,0.5],[1,0.5]];portConstraint=eastwest;whiteSpace=wrap;" parent="PRVAVNiG4iK3DcqKCOQi-2" vertex="1">
          <mxGeometry y="70" width="140" height="30" as="geometry" />
        </mxCell>
        <mxCell id="PRVAVNiG4iK3DcqKCOQi-5" value="ImageBase64Data" style="text;html=1;strokeColor=none;fillColor=none;align=center;verticalAlign=middle;spacingLeft=4;spacingRight=4;overflow=hidden;rotatable=0;points=[[0,0.5],[1,0.5]];portConstraint=eastwest;whiteSpace=wrap;" parent="PRVAVNiG4iK3DcqKCOQi-2" vertex="1">
          <mxGeometry y="100" width="140" height="30" as="geometry" />
        </mxCell>
        <mxCell id="PRVAVNiG4iK3DcqKCOQi-6" value="Server Message&lt;br style=&quot;border-color: var(--border-color);&quot;&gt;JSON Payload" style="swimlane;fontStyle=1;align=center;verticalAlign=top;childLayout=stackLayout;horizontal=1;startSize=40;horizontalStack=0;resizeParent=1;resizeParentMax=0;resizeLast=0;collapsible=0;marginBottom=0;html=1;whiteSpace=wrap;" parent="011NTTUWW6af43eOhtOa-1" vertex="1">
          <mxGeometry x="318.75" y="850" width="140" height="130" as="geometry" />
        </mxCell>
        <mxCell id="PRVAVNiG4iK3DcqKCOQi-7" value="ResponseMessage" style="text;html=1;strokeColor=none;fillColor=none;align=center;verticalAlign=middle;spacingLeft=4;spacingRight=4;overflow=hidden;rotatable=0;points=[[0,0.5],[1,0.5]];portConstraint=eastwest;whiteSpace=wrap;" parent="PRVAVNiG4iK3DcqKCOQi-6" vertex="1">
          <mxGeometry y="40" width="140" height="30" as="geometry" />
        </mxCell>
        <mxCell id="PRVAVNiG4iK3DcqKCOQi-8" value="ImageFileName" style="text;html=1;strokeColor=none;fillColor=none;align=center;verticalAlign=middle;spacingLeft=4;spacingRight=4;overflow=hidden;rotatable=0;points=[[0,0.5],[1,0.5]];portConstraint=eastwest;whiteSpace=wrap;" parent="PRVAVNiG4iK3DcqKCOQi-6" vertex="1">
          <mxGeometry y="70" width="140" height="30" as="geometry" />
        </mxCell>
        <mxCell id="PRVAVNiG4iK3DcqKCOQi-9" value="OcrResult" style="text;html=1;strokeColor=none;fillColor=none;align=center;verticalAlign=middle;spacingLeft=4;spacingRight=4;overflow=hidden;rotatable=0;points=[[0,0.5],[1,0.5]];portConstraint=eastwest;whiteSpace=wrap;" parent="PRVAVNiG4iK3DcqKCOQi-6" vertex="1">
          <mxGeometry y="100" width="140" height="30" as="geometry" />
        </mxCell>
        <mxCell id="PRVAVNiG4iK3DcqKCOQi-16" style="edgeStyle=orthogonalEdgeStyle;rounded=0;orthogonalLoop=1;jettySize=auto;html=1;exitX=1;exitY=0.5;exitDx=0;exitDy=0;entryX=0;entryY=0.5;entryDx=0;entryDy=0;startArrow=classic;startFill=1;" parent="011NTTUWW6af43eOhtOa-1" source="PRVAVNiG4iK3DcqKCOQi-4" target="PRVAVNiG4iK3DcqKCOQi-8" edge="1">
          <mxGeometry relative="1" as="geometry" />
        </mxCell>
        <mxCell id="PRVAVNiG4iK3DcqKCOQi-14" value="Handshake" style="text;html=1;align=center;verticalAlign=middle;resizable=0;points=[];autosize=1;strokeColor=none;fillColor=none;" parent="011NTTUWW6af43eOhtOa-1" vertex="1">
          <mxGeometry x="213.75" y="565" width="80" height="30" as="geometry" />
        </mxCell>
        <mxCell id="PRVAVNiG4iK3DcqKCOQi-15" value="Acknowledge" style="text;html=1;align=center;verticalAlign=middle;resizable=0;points=[];autosize=1;strokeColor=none;fillColor=none;" parent="011NTTUWW6af43eOhtOa-1" vertex="1">
          <mxGeometry x="208.75" y="650" width="90" height="30" as="geometry" />
        </mxCell>
        <mxCell id="PRVAVNiG4iK3DcqKCOQi-17" value="Bi-direction Messages" style="text;html=1;align=center;verticalAlign=middle;resizable=0;points=[];autosize=1;strokeColor=none;fillColor=none;" parent="011NTTUWW6af43eOhtOa-1" vertex="1">
          <mxGeometry x="183.75" y="900" width="140" height="30" as="geometry" />
        </mxCell>
        <mxCell id="HzzBQW3_Ap6hoxM3S4qQ-5" value="Consume" style="text;html=1;align=center;verticalAlign=middle;resizable=0;points=[];autosize=1;strokeColor=none;fillColor=none;" parent="011NTTUWW6af43eOhtOa-1" vertex="1">
          <mxGeometry x="768.75" y="580" width="70" height="30" as="geometry" />
        </mxCell>
        <mxCell id="HzzBQW3_Ap6hoxM3S4qQ-6" value="Produce" style="text;html=1;align=center;verticalAlign=middle;resizable=0;points=[];autosize=1;strokeColor=none;fillColor=none;" parent="011NTTUWW6af43eOhtOa-1" vertex="1">
          <mxGeometry x="768.75" y="655" width="70" height="30" as="geometry" />
        </mxCell>
        <mxCell id="99HaWsGdwvyVWMwJlH4X-2" value="" style="shape=flexArrow;endArrow=classic;html=1;rounded=0;" parent="011NTTUWW6af43eOhtOa-1" edge="1">
          <mxGeometry width="50" height="50" relative="1" as="geometry">
            <mxPoint x="243.25" y="720" as="sourcePoint" />
            <mxPoint x="243.25" y="790" as="targetPoint" />
          </mxGeometry>
        </mxCell>
        <mxCell id="99HaWsGdwvyVWMwJlH4X-3" value="" style="shape=flexArrow;endArrow=classic;html=1;rounded=0;" parent="011NTTUWW6af43eOhtOa-1" edge="1">
          <mxGeometry width="50" height="50" relative="1" as="geometry">
            <mxPoint x="508.75" y="815" as="sourcePoint" />
            <mxPoint x="568.75" y="765" as="targetPoint" />
          </mxGeometry>
        </mxCell>
        <mxCell id="99HaWsGdwvyVWMwJlH4X-4" value="" style="rounded=0;whiteSpace=wrap;html=1;fillColor=none;" parent="011NTTUWW6af43eOhtOa-1" vertex="1">
          <mxGeometry x="33.75" y="545" width="445" height="150" as="geometry" />
        </mxCell>
        <mxCell id="99HaWsGdwvyVWMwJlH4X-5" value="" style="rounded=0;whiteSpace=wrap;html=1;fillColor=none;" parent="011NTTUWW6af43eOhtOa-1" vertex="1">
          <mxGeometry x="31.25" y="840" width="445" height="150" as="geometry" />
        </mxCell>
        <mxCell id="99HaWsGdwvyVWMwJlH4X-6" value="" style="rounded=0;whiteSpace=wrap;html=1;fillColor=none;" parent="011NTTUWW6af43eOhtOa-1" vertex="1">
          <mxGeometry x="593.75" y="545" width="430" height="190" as="geometry" />
        </mxCell>
        <mxCell id="99HaWsGdwvyVWMwJlH4X-9" value="&lt;font style=&quot;font-size: 15px;&quot;&gt;&lt;b&gt;Clinet and Server First Communication&lt;/b&gt;&lt;/font&gt;" style="text;html=1;align=center;verticalAlign=middle;resizable=0;points=[];autosize=1;strokeColor=none;fillColor=none;" parent="011NTTUWW6af43eOhtOa-1" vertex="1">
          <mxGeometry x="106.25" y="500" width="300" height="30" as="geometry" />
        </mxCell>
        <mxCell id="99HaWsGdwvyVWMwJlH4X-10" value="&lt;font style=&quot;font-size: 15px;&quot;&gt;&lt;b&gt;Client Upload Image and Server Return OCR&amp;nbsp; Result&lt;/b&gt;&lt;/font&gt;" style="text;html=1;align=center;verticalAlign=middle;resizable=0;points=[];autosize=1;strokeColor=none;fillColor=none;" parent="011NTTUWW6af43eOhtOa-1" vertex="1">
          <mxGeometry x="61.25" y="800" width="390" height="30" as="geometry" />
        </mxCell>
        <mxCell id="99HaWsGdwvyVWMwJlH4X-11" value="&lt;font style=&quot;font-size: 15px;&quot;&gt;&lt;b&gt;OCR Server Process Image and Execute OCR&lt;/b&gt;&lt;/font&gt;" style="text;html=1;align=center;verticalAlign=middle;resizable=0;points=[];autosize=1;strokeColor=none;fillColor=none;" parent="011NTTUWW6af43eOhtOa-1" vertex="1">
          <mxGeometry x="643.75" y="500" width="350" height="30" as="geometry" />
        </mxCell>
        <mxCell id="011NTTUWW6af43eOhtOa-30" value="客戶端程式" style="swimlane;whiteSpace=wrap;html=1;" parent="1" vertex="1" collapsed="1">
          <mxGeometry x="15" y="100" width="100" height="30" as="geometry">
            <mxRectangle x="15" y="100" width="1040" height="800" as="alternateBounds" />
          </mxGeometry>
        </mxCell>
        <mxCell id="011NTTUWW6af43eOhtOa-77" value="執行緒池" style="swimlane;whiteSpace=wrap;html=1;" parent="011NTTUWW6af43eOhtOa-30" vertex="1" collapsed="1">
          <mxGeometry x="215" y="70" width="90" height="30" as="geometry">
            <mxRectangle x="475" y="90" width="760" height="570" as="alternateBounds" />
          </mxGeometry>
        </mxCell>
        <mxCell id="011NTTUWW6af43eOhtOa-97" value="" style="rounded=0;whiteSpace=wrap;html=1;fillColor=none;" parent="011NTTUWW6af43eOhtOa-77" vertex="1">
          <mxGeometry x="30" y="220" width="590" height="330" as="geometry" />
        </mxCell>
        <mxCell id="011NTTUWW6af43eOhtOa-98" value="執行緒1" style="rounded=0;whiteSpace=wrap;html=1;" parent="011NTTUWW6af43eOhtOa-77" vertex="1">
          <mxGeometry x="50" y="420" width="120" height="100" as="geometry" />
        </mxCell>
        <mxCell id="011NTTUWW6af43eOhtOa-99" value="執行緒2" style="rounded=0;whiteSpace=wrap;html=1;" parent="011NTTUWW6af43eOhtOa-77" vertex="1">
          <mxGeometry x="193" y="420" width="120" height="100" as="geometry" />
        </mxCell>
        <mxCell id="011NTTUWW6af43eOhtOa-100" value="執行緒3" style="rounded=0;whiteSpace=wrap;html=1;" parent="011NTTUWW6af43eOhtOa-77" vertex="1">
          <mxGeometry x="337" y="420" width="120" height="100" as="geometry" />
        </mxCell>
        <mxCell id="011NTTUWW6af43eOhtOa-101" value="執行緒N.." style="rounded=0;whiteSpace=wrap;html=1;" parent="011NTTUWW6af43eOhtOa-77" vertex="1">
          <mxGeometry x="480" y="420" width="120" height="100" as="geometry" />
        </mxCell>
        <mxCell id="011NTTUWW6af43eOhtOa-102" value="&lt;font style=&quot;font-size: 20px;&quot;&gt;執行緒池&lt;/font&gt;" style="text;html=1;align=center;verticalAlign=middle;resizable=0;points=[];autosize=1;strokeColor=none;fillColor=none;" parent="011NTTUWW6af43eOhtOa-77" vertex="1">
          <mxGeometry x="630" y="365" width="100" height="40" as="geometry" />
        </mxCell>
        <mxCell id="011NTTUWW6af43eOhtOa-104" value="" style="rounded=0;whiteSpace=wrap;html=1;fillColor=none;" parent="011NTTUWW6af43eOhtOa-77" vertex="1">
          <mxGeometry x="30" y="50" width="590" height="80" as="geometry" />
        </mxCell>
        <mxCell id="011NTTUWW6af43eOhtOa-105" value="任務1" style="rounded=0;whiteSpace=wrap;html=1;" parent="011NTTUWW6af43eOhtOa-77" vertex="1">
          <mxGeometry x="50" y="60" width="90" height="60" as="geometry" />
        </mxCell>
        <mxCell id="011NTTUWW6af43eOhtOa-106" value="任務2" style="rounded=0;whiteSpace=wrap;html=1;" parent="011NTTUWW6af43eOhtOa-77" vertex="1">
          <mxGeometry x="167" y="60" width="90" height="60" as="geometry" />
        </mxCell>
        <mxCell id="011NTTUWW6af43eOhtOa-107" value="任務3" style="rounded=0;whiteSpace=wrap;html=1;" parent="011NTTUWW6af43eOhtOa-77" vertex="1">
          <mxGeometry x="283" y="60" width="90" height="60" as="geometry" />
        </mxCell>
        <mxCell id="011NTTUWW6af43eOhtOa-108" value="任務4" style="rounded=0;whiteSpace=wrap;html=1;" parent="011NTTUWW6af43eOhtOa-77" vertex="1">
          <mxGeometry x="400" y="60" width="90" height="60" as="geometry" />
        </mxCell>
        <mxCell id="011NTTUWW6af43eOhtOa-109" value="任務N..." style="rounded=0;whiteSpace=wrap;html=1;" parent="011NTTUWW6af43eOhtOa-77" vertex="1">
          <mxGeometry x="510" y="60" width="90" height="60" as="geometry" />
        </mxCell>
        <mxCell id="011NTTUWW6af43eOhtOa-110" style="edgeStyle=orthogonalEdgeStyle;rounded=0;orthogonalLoop=1;jettySize=auto;html=1;" parent="011NTTUWW6af43eOhtOa-77" source="011NTTUWW6af43eOhtOa-114" target="011NTTUWW6af43eOhtOa-98" edge="1">
          <mxGeometry relative="1" as="geometry" />
        </mxCell>
        <mxCell id="011NTTUWW6af43eOhtOa-111" style="edgeStyle=orthogonalEdgeStyle;rounded=0;orthogonalLoop=1;jettySize=auto;html=1;exitX=0.5;exitY=1;exitDx=0;exitDy=0;" parent="011NTTUWW6af43eOhtOa-77" source="011NTTUWW6af43eOhtOa-114" target="011NTTUWW6af43eOhtOa-99" edge="1">
          <mxGeometry relative="1" as="geometry" />
        </mxCell>
        <mxCell id="011NTTUWW6af43eOhtOa-112" style="edgeStyle=orthogonalEdgeStyle;rounded=0;orthogonalLoop=1;jettySize=auto;html=1;exitX=0.5;exitY=1;exitDx=0;exitDy=0;" parent="011NTTUWW6af43eOhtOa-77" source="011NTTUWW6af43eOhtOa-114" target="011NTTUWW6af43eOhtOa-100" edge="1">
          <mxGeometry relative="1" as="geometry" />
        </mxCell>
        <mxCell id="011NTTUWW6af43eOhtOa-113" style="edgeStyle=orthogonalEdgeStyle;rounded=0;orthogonalLoop=1;jettySize=auto;html=1;exitX=0.5;exitY=1;exitDx=0;exitDy=0;" parent="011NTTUWW6af43eOhtOa-77" source="011NTTUWW6af43eOhtOa-114" target="011NTTUWW6af43eOhtOa-101" edge="1">
          <mxGeometry relative="1" as="geometry" />
        </mxCell>
        <mxCell id="011NTTUWW6af43eOhtOa-114" value="任務調度器" style="rounded=0;whiteSpace=wrap;html=1;" parent="011NTTUWW6af43eOhtOa-77" vertex="1">
          <mxGeometry x="50" y="240" width="550" height="60" as="geometry" />
        </mxCell>
        <mxCell id="011NTTUWW6af43eOhtOa-103" style="edgeStyle=orthogonalEdgeStyle;rounded=0;orthogonalLoop=1;jettySize=auto;html=1;entryX=0.5;entryY=0;entryDx=0;entryDy=0;" parent="011NTTUWW6af43eOhtOa-77" source="011NTTUWW6af43eOhtOa-104" target="011NTTUWW6af43eOhtOa-114" edge="1">
          <mxGeometry relative="1" as="geometry" />
        </mxCell>
        <mxCell id="011NTTUWW6af43eOhtOa-115" value="&lt;font style=&quot;font-size: 20px;&quot;&gt;待處理任務&lt;/font&gt;" style="text;html=1;align=center;verticalAlign=middle;resizable=0;points=[];autosize=1;strokeColor=none;fillColor=none;" parent="011NTTUWW6af43eOhtOa-77" vertex="1">
          <mxGeometry x="631" y="70" width="120" height="40" as="geometry" />
        </mxCell>
        <mxCell id="011NTTUWW6af43eOhtOa-157" value="任務" style="swimlane;whiteSpace=wrap;html=1;" parent="011NTTUWW6af43eOhtOa-30" vertex="1" collapsed="1">
          <mxGeometry x="425" y="70" width="60" height="30" as="geometry">
            <mxRectangle x="612" y="30" width="773" height="670" as="alternateBounds" />
          </mxGeometry>
        </mxCell>
        <mxCell id="011NTTUWW6af43eOhtOa-159" value="初始化&lt;br&gt;WebSocket物件" style="rounded=0;whiteSpace=wrap;html=1;" parent="011NTTUWW6af43eOhtOa-157" vertex="1">
          <mxGeometry x="13" y="140.5" width="120" height="60" as="geometry" />
        </mxCell>
        <mxCell id="011NTTUWW6af43eOhtOa-161" value="向伺服器發起連線" style="whiteSpace=wrap;html=1;rounded=0;" parent="011NTTUWW6af43eOhtOa-157" vertex="1">
          <mxGeometry x="13" y="280.5" width="120" height="60" as="geometry" />
        </mxCell>
        <mxCell id="011NTTUWW6af43eOhtOa-158" value="" style="edgeStyle=orthogonalEdgeStyle;rounded=0;orthogonalLoop=1;jettySize=auto;html=1;" parent="011NTTUWW6af43eOhtOa-157" source="011NTTUWW6af43eOhtOa-159" target="011NTTUWW6af43eOhtOa-161" edge="1">
          <mxGeometry relative="1" as="geometry" />
        </mxCell>
        <mxCell id="011NTTUWW6af43eOhtOa-163" value="發送客戶端名稱&lt;br&gt;給伺服器" style="whiteSpace=wrap;html=1;rounded=0;" parent="011NTTUWW6af43eOhtOa-157" vertex="1">
          <mxGeometry x="13" y="420.5" width="120" height="60" as="geometry" />
        </mxCell>
        <mxCell id="011NTTUWW6af43eOhtOa-160" value="" style="edgeStyle=orthogonalEdgeStyle;rounded=0;orthogonalLoop=1;jettySize=auto;html=1;" parent="011NTTUWW6af43eOhtOa-157" source="011NTTUWW6af43eOhtOa-161" target="011NTTUWW6af43eOhtOa-163" edge="1">
          <mxGeometry relative="1" as="geometry" />
        </mxCell>
        <mxCell id="011NTTUWW6af43eOhtOa-165" value="開始與伺服器通訊" style="whiteSpace=wrap;html=1;rounded=0;" parent="011NTTUWW6af43eOhtOa-157" vertex="1">
          <mxGeometry x="283" y="140.5" width="120" height="60" as="geometry" />
        </mxCell>
        <mxCell id="011NTTUWW6af43eOhtOa-167" value="傳送圖片給伺服器" style="whiteSpace=wrap;html=1;rounded=0;" parent="011NTTUWW6af43eOhtOa-157" vertex="1">
          <mxGeometry x="283" y="420" width="120" height="60" as="geometry" />
        </mxCell>
        <mxCell id="011NTTUWW6af43eOhtOa-168" value="" style="edgeStyle=orthogonalEdgeStyle;rounded=0;orthogonalLoop=1;jettySize=auto;html=1;" parent="011NTTUWW6af43eOhtOa-157" source="011NTTUWW6af43eOhtOa-170" target="011NTTUWW6af43eOhtOa-167" edge="1">
          <mxGeometry relative="1" as="geometry" />
        </mxCell>
        <mxCell id="011NTTUWW6af43eOhtOa-170" value="是否還有圖片&lt;br style=&quot;border-color: var(--border-color);&quot;&gt;沒有傳送&lt;br style=&quot;border-color: var(--border-color);&quot;&gt;給伺服器?" style="rhombus;whiteSpace=wrap;html=1;rounded=0;" parent="011NTTUWW6af43eOhtOa-157" vertex="1">
          <mxGeometry x="283" y="255.5" width="120" height="110" as="geometry" />
        </mxCell>
        <mxCell id="011NTTUWW6af43eOhtOa-164" value="" style="edgeStyle=orthogonalEdgeStyle;rounded=0;orthogonalLoop=1;jettySize=auto;html=1;" parent="011NTTUWW6af43eOhtOa-157" source="011NTTUWW6af43eOhtOa-165" target="011NTTUWW6af43eOhtOa-170" edge="1">
          <mxGeometry relative="1" as="geometry" />
        </mxCell>
        <mxCell id="011NTTUWW6af43eOhtOa-172" value="斷開與伺服器的連線" style="whiteSpace=wrap;html=1;rounded=0;" parent="011NTTUWW6af43eOhtOa-157" vertex="1">
          <mxGeometry x="483" y="280.5" width="120" height="60" as="geometry" />
        </mxCell>
        <mxCell id="011NTTUWW6af43eOhtOa-169" value="" style="edgeStyle=orthogonalEdgeStyle;rounded=0;orthogonalLoop=1;jettySize=auto;html=1;" parent="011NTTUWW6af43eOhtOa-157" source="011NTTUWW6af43eOhtOa-170" target="011NTTUWW6af43eOhtOa-172" edge="1">
          <mxGeometry relative="1" as="geometry" />
        </mxCell>
        <mxCell id="011NTTUWW6af43eOhtOa-173" value="任務結束" style="strokeWidth=1;html=1;shape=mxgraph.flowchart.terminator;whiteSpace=wrap;" parent="011NTTUWW6af43eOhtOa-157" vertex="1">
          <mxGeometry x="673" y="280.5" width="100" height="60" as="geometry" />
        </mxCell>
        <mxCell id="011NTTUWW6af43eOhtOa-171" value="" style="edgeStyle=orthogonalEdgeStyle;rounded=0;orthogonalLoop=1;jettySize=auto;html=1;" parent="011NTTUWW6af43eOhtOa-157" source="011NTTUWW6af43eOhtOa-172" target="011NTTUWW6af43eOhtOa-173" edge="1">
          <mxGeometry relative="1" as="geometry" />
        </mxCell>
        <mxCell id="011NTTUWW6af43eOhtOa-174" value="Yes" style="text;html=1;align=center;verticalAlign=middle;resizable=0;points=[];autosize=1;strokeColor=none;fillColor=none;" parent="011NTTUWW6af43eOhtOa-157" vertex="1">
          <mxGeometry x="343" y="380" width="40" height="30" as="geometry" />
        </mxCell>
        <mxCell id="011NTTUWW6af43eOhtOa-175" value="No" style="text;html=1;align=center;verticalAlign=middle;resizable=0;points=[];autosize=1;strokeColor=none;fillColor=none;" parent="011NTTUWW6af43eOhtOa-157" vertex="1">
          <mxGeometry x="413" y="280.5" width="40" height="30" as="geometry" />
        </mxCell>
        <mxCell id="011NTTUWW6af43eOhtOa-176" value="" style="edgeStyle=orthogonalEdgeStyle;rounded=0;orthogonalLoop=1;jettySize=auto;html=1;" parent="011NTTUWW6af43eOhtOa-157" source="011NTTUWW6af43eOhtOa-177" target="011NTTUWW6af43eOhtOa-159" edge="1">
          <mxGeometry relative="1" as="geometry" />
        </mxCell>
        <mxCell id="011NTTUWW6af43eOhtOa-177" value="任務開始" style="strokeWidth=1;html=1;shape=mxgraph.flowchart.start_1;whiteSpace=wrap;" parent="011NTTUWW6af43eOhtOa-157" vertex="1">
          <mxGeometry x="23" y="30" width="100" height="60" as="geometry" />
        </mxCell>
        <mxCell id="011NTTUWW6af43eOhtOa-178" style="edgeStyle=orthogonalEdgeStyle;rounded=0;orthogonalLoop=1;jettySize=auto;html=1;exitX=0.5;exitY=1;exitDx=0;exitDy=0;" parent="011NTTUWW6af43eOhtOa-157" source="011NTTUWW6af43eOhtOa-179" edge="1">
          <mxGeometry relative="1" as="geometry">
            <mxPoint x="342.66666666666674" y="220" as="targetPoint" />
            <Array as="points">
              <mxPoint x="343" y="660" />
              <mxPoint x="243" y="660" />
              <mxPoint x="243" y="220" />
            </Array>
          </mxGeometry>
        </mxCell>
        <mxCell id="011NTTUWW6af43eOhtOa-179" value="接收伺服器&lt;br&gt;返回圖片OCR結果" style="whiteSpace=wrap;html=1;rounded=0;" parent="011NTTUWW6af43eOhtOa-157" vertex="1">
          <mxGeometry x="283" y="560.5" width="120" height="60" as="geometry" />
        </mxCell>
        <mxCell id="011NTTUWW6af43eOhtOa-166" value="" style="edgeStyle=orthogonalEdgeStyle;rounded=0;orthogonalLoop=1;jettySize=auto;html=1;" parent="011NTTUWW6af43eOhtOa-157" source="011NTTUWW6af43eOhtOa-167" target="011NTTUWW6af43eOhtOa-179" edge="1">
          <mxGeometry relative="1" as="geometry" />
        </mxCell>
        <mxCell id="011NTTUWW6af43eOhtOa-180" style="edgeStyle=orthogonalEdgeStyle;rounded=0;orthogonalLoop=1;jettySize=auto;html=1;entryX=0.5;entryY=0;entryDx=0;entryDy=0;exitX=0.5;exitY=1;exitDx=0;exitDy=0;" parent="011NTTUWW6af43eOhtOa-157" source="011NTTUWW6af43eOhtOa-181" target="011NTTUWW6af43eOhtOa-165" edge="1">
          <mxGeometry relative="1" as="geometry">
            <Array as="points">
              <mxPoint x="73" y="660" />
              <mxPoint x="208" y="660" />
              <mxPoint x="208" y="121" />
              <mxPoint x="343" y="121" />
            </Array>
          </mxGeometry>
        </mxCell>
        <mxCell id="011NTTUWW6af43eOhtOa-181" value="&lt;span style=&quot;color: rgb(0, 0, 0); font-family: Helvetica; font-size: 12px; font-style: normal; font-variant-ligatures: normal; font-variant-caps: normal; font-weight: 400; letter-spacing: normal; orphans: 2; text-align: center; text-indent: 0px; text-transform: none; widows: 2; word-spacing: 0px; -webkit-text-stroke-width: 0px; background-color: rgb(251, 251, 251); text-decoration-thickness: initial; text-decoration-style: initial; text-decoration-color: initial; float: none; display: inline !important;&quot;&gt;接收伺服器回傳的Client_UUID&lt;/span&gt;" style="whiteSpace=wrap;html=1;rounded=0;" parent="011NTTUWW6af43eOhtOa-157" vertex="1">
          <mxGeometry x="13" y="560.5" width="120" height="60" as="geometry" />
        </mxCell>
        <mxCell id="011NTTUWW6af43eOhtOa-162" value="" style="edgeStyle=orthogonalEdgeStyle;rounded=0;orthogonalLoop=1;jettySize=auto;html=1;" parent="011NTTUWW6af43eOhtOa-157" source="011NTTUWW6af43eOhtOa-163" target="011NTTUWW6af43eOhtOa-181" edge="1">
          <mxGeometry relative="1" as="geometry" />
        </mxCell>
        <mxCell id="011NTTUWW6af43eOhtOa-182" value="主程式" style="swimlane;whiteSpace=wrap;html=1;" parent="011NTTUWW6af43eOhtOa-30" vertex="1" collapsed="1">
          <mxGeometry x="25" y="70" width="80" height="30" as="geometry">
            <mxRectangle x="25" y="70" width="1015" height="730" as="alternateBounds" />
          </mxGeometry>
        </mxCell>
        <mxCell id="011NTTUWW6af43eOhtOa-201" value="讀取設定檔(.ini)" style="whiteSpace=wrap;html=1;strokeWidth=1;fontSize=15;" parent="011NTTUWW6af43eOhtOa-182" vertex="1">
          <mxGeometry x="94" y="180" width="120" height="60" as="geometry" />
        </mxCell>
        <mxCell id="011NTTUWW6af43eOhtOa-202" value="讀取要上傳到伺服器的圖片路徑" style="whiteSpace=wrap;html=1;strokeWidth=1;fontSize=15;" parent="011NTTUWW6af43eOhtOa-182" vertex="1">
          <mxGeometry x="94" y="320" width="120" height="60" as="geometry" />
        </mxCell>
        <mxCell id="011NTTUWW6af43eOhtOa-203" value="" style="edgeStyle=orthogonalEdgeStyle;rounded=0;orthogonalLoop=1;jettySize=auto;html=1;fontSize=15;" parent="011NTTUWW6af43eOhtOa-182" source="011NTTUWW6af43eOhtOa-201" target="011NTTUWW6af43eOhtOa-202" edge="1">
          <mxGeometry relative="1" as="geometry" />
        </mxCell>
        <mxCell id="011NTTUWW6af43eOhtOa-204" value="啟動執行緒池" style="whiteSpace=wrap;html=1;strokeWidth=1;fontSize=15;" parent="011NTTUWW6af43eOhtOa-182" vertex="1">
          <mxGeometry x="94" y="460" width="120" height="60" as="geometry" />
        </mxCell>
        <mxCell id="011NTTUWW6af43eOhtOa-205" value="" style="edgeStyle=orthogonalEdgeStyle;rounded=0;orthogonalLoop=1;jettySize=auto;html=1;fontSize=15;" parent="011NTTUWW6af43eOhtOa-182" source="011NTTUWW6af43eOhtOa-202" target="011NTTUWW6af43eOhtOa-204" edge="1">
          <mxGeometry relative="1" as="geometry" />
        </mxCell>
        <mxCell id="011NTTUWW6af43eOhtOa-206" value="每兩張圖片組合成一個任務" style="whiteSpace=wrap;html=1;strokeWidth=1;fontSize=15;" parent="011NTTUWW6af43eOhtOa-182" vertex="1">
          <mxGeometry x="298" y="180" width="120" height="60" as="geometry" />
        </mxCell>
        <mxCell id="011NTTUWW6af43eOhtOa-207" value="" style="edgeStyle=orthogonalEdgeStyle;rounded=0;orthogonalLoop=1;jettySize=auto;html=1;entryX=0.5;entryY=0;entryDx=0;entryDy=0;fontSize=15;" parent="011NTTUWW6af43eOhtOa-182" source="011NTTUWW6af43eOhtOa-204" target="011NTTUWW6af43eOhtOa-206" edge="1">
          <mxGeometry relative="1" as="geometry" />
        </mxCell>
        <mxCell id="011NTTUWW6af43eOhtOa-208" value="提交所有任務&lt;br style=&quot;font-size: 15px;&quot;&gt;到執行緒池" style="whiteSpace=wrap;html=1;strokeWidth=1;fontSize=15;" parent="011NTTUWW6af43eOhtOa-182" vertex="1">
          <mxGeometry x="298" y="320" width="120" height="60" as="geometry" />
        </mxCell>
        <mxCell id="011NTTUWW6af43eOhtOa-209" value="" style="edgeStyle=orthogonalEdgeStyle;rounded=0;orthogonalLoop=1;jettySize=auto;html=1;exitX=0.5;exitY=1;exitDx=0;exitDy=0;fontSize=15;" parent="011NTTUWW6af43eOhtOa-182" source="011NTTUWW6af43eOhtOa-206" target="011NTTUWW6af43eOhtOa-208" edge="1">
          <mxGeometry relative="1" as="geometry" />
        </mxCell>
        <mxCell id="011NTTUWW6af43eOhtOa-210" style="edgeStyle=orthogonalEdgeStyle;rounded=0;orthogonalLoop=1;jettySize=auto;html=1;exitX=1;exitY=0.5;exitDx=0;exitDy=0;fontSize=15;" parent="011NTTUWW6af43eOhtOa-182" source="011NTTUWW6af43eOhtOa-211" edge="1">
          <mxGeometry relative="1" as="geometry">
            <mxPoint x="358" y="420" as="targetPoint" />
            <Array as="points">
              <mxPoint x="454" y="505" />
              <mxPoint x="454" y="420" />
            </Array>
          </mxGeometry>
        </mxCell>
        <mxCell id="011NTTUWW6af43eOhtOa-211" value="任務是否&lt;br&gt;全部完成?" style="rhombus;whiteSpace=wrap;html=1;strokeWidth=1;fontSize=15;" parent="011NTTUWW6af43eOhtOa-182" vertex="1">
          <mxGeometry x="298" y="450" width="120" height="110" as="geometry" />
        </mxCell>
        <mxCell id="011NTTUWW6af43eOhtOa-212" value="" style="edgeStyle=orthogonalEdgeStyle;rounded=0;orthogonalLoop=1;jettySize=auto;html=1;fontSize=15;" parent="011NTTUWW6af43eOhtOa-182" source="011NTTUWW6af43eOhtOa-208" target="011NTTUWW6af43eOhtOa-211" edge="1">
          <mxGeometry relative="1" as="geometry" />
        </mxCell>
        <mxCell id="011NTTUWW6af43eOhtOa-213" value="Yes" style="text;html=1;align=center;verticalAlign=middle;resizable=0;points=[];autosize=1;strokeColor=none;fillColor=none;fontSize=15;" parent="011NTTUWW6af43eOhtOa-182" vertex="1">
          <mxGeometry x="349" y="580" width="50" height="30" as="geometry" />
        </mxCell>
        <mxCell id="011NTTUWW6af43eOhtOa-214" value="程式結束" style="strokeWidth=1;html=1;shape=mxgraph.flowchart.terminator;whiteSpace=wrap;fontSize=15;" parent="011NTTUWW6af43eOhtOa-182" vertex="1">
          <mxGeometry x="308" y="630" width="100" height="60" as="geometry" />
        </mxCell>
        <mxCell id="011NTTUWW6af43eOhtOa-215" value="" style="edgeStyle=orthogonalEdgeStyle;rounded=0;orthogonalLoop=1;jettySize=auto;html=1;fontSize=15;" parent="011NTTUWW6af43eOhtOa-182" source="011NTTUWW6af43eOhtOa-211" target="011NTTUWW6af43eOhtOa-214" edge="1">
          <mxGeometry relative="1" as="geometry" />
        </mxCell>
        <mxCell id="011NTTUWW6af43eOhtOa-216" value="程式開始" style="strokeWidth=1;html=1;shape=mxgraph.flowchart.start_1;whiteSpace=wrap;fontSize=15;" parent="011NTTUWW6af43eOhtOa-182" vertex="1">
          <mxGeometry x="104" y="40" width="100" height="60" as="geometry" />
        </mxCell>
        <mxCell id="011NTTUWW6af43eOhtOa-217" value="" style="edgeStyle=orthogonalEdgeStyle;rounded=0;orthogonalLoop=1;jettySize=auto;html=1;jumpSize=6;fontSize=15;" parent="011NTTUWW6af43eOhtOa-182" source="011NTTUWW6af43eOhtOa-216" target="011NTTUWW6af43eOhtOa-201" edge="1">
          <mxGeometry relative="1" as="geometry" />
        </mxCell>
        <mxCell id="011NTTUWW6af43eOhtOa-218" value="No" style="text;html=1;align=center;verticalAlign=middle;resizable=0;points=[];autosize=1;strokeColor=none;fillColor=none;fontSize=15;" parent="011NTTUWW6af43eOhtOa-182" vertex="1">
          <mxGeometry x="454" y="455" width="40" height="30" as="geometry" />
        </mxCell>
        <mxCell id="WMfOsqNfYVRaj0SjAV3j-194" value="OCR伺服器程式" style="swimlane;whiteSpace=wrap;html=1;startSize=23;" vertex="1" collapsed="1" parent="1">
          <mxGeometry x="20" y="430" width="100" height="30" as="geometry">
            <mxRectangle x="20" y="430" width="1085" height="1180" as="alternateBounds" />
          </mxGeometry>
        </mxCell>
        <mxCell id="WMfOsqNfYVRaj0SjAV3j-241" value="程式開始" style="strokeWidth=1;html=1;shape=mxgraph.flowchart.start_1;whiteSpace=wrap;" vertex="1" parent="WMfOsqNfYVRaj0SjAV3j-194">
          <mxGeometry x="110" y="60" width="100" height="60" as="geometry" />
        </mxCell>
        <mxCell id="WMfOsqNfYVRaj0SjAV3j-242" value="讀取設定檔" style="whiteSpace=wrap;html=1;strokeWidth=1;" vertex="1" parent="WMfOsqNfYVRaj0SjAV3j-194">
          <mxGeometry x="100" y="200" width="120" height="60" as="geometry" />
        </mxCell>
        <mxCell id="WMfOsqNfYVRaj0SjAV3j-243" value="" style="edgeStyle=orthogonalEdgeStyle;rounded=0;orthogonalLoop=1;jettySize=auto;html=1;" edge="1" parent="WMfOsqNfYVRaj0SjAV3j-194" source="WMfOsqNfYVRaj0SjAV3j-241" target="WMfOsqNfYVRaj0SjAV3j-242">
          <mxGeometry relative="1" as="geometry" />
        </mxCell>
        <mxCell id="WMfOsqNfYVRaj0SjAV3j-244" value="建立進程池" style="whiteSpace=wrap;html=1;strokeWidth=1;" vertex="1" parent="WMfOsqNfYVRaj0SjAV3j-194">
          <mxGeometry x="100" y="340" width="120" height="60" as="geometry" />
        </mxCell>
        <mxCell id="WMfOsqNfYVRaj0SjAV3j-245" value="" style="edgeStyle=orthogonalEdgeStyle;rounded=0;orthogonalLoop=1;jettySize=auto;html=1;" edge="1" parent="WMfOsqNfYVRaj0SjAV3j-194" source="WMfOsqNfYVRaj0SjAV3j-242" target="WMfOsqNfYVRaj0SjAV3j-244">
          <mxGeometry relative="1" as="geometry" />
        </mxCell>
        <mxCell id="WMfOsqNfYVRaj0SjAV3j-249" value="" style="edgeStyle=orthogonalEdgeStyle;rounded=0;orthogonalLoop=1;jettySize=auto;html=1;" edge="1" parent="WMfOsqNfYVRaj0SjAV3j-194" source="WMfOsqNfYVRaj0SjAV3j-246">
          <mxGeometry relative="1" as="geometry">
            <mxPoint x="160" y="700" as="targetPoint" />
          </mxGeometry>
        </mxCell>
        <mxCell id="WMfOsqNfYVRaj0SjAV3j-252" style="edgeStyle=orthogonalEdgeStyle;rounded=0;orthogonalLoop=1;jettySize=auto;html=1;exitX=0;exitY=0.5;exitDx=0;exitDy=0;" edge="1" parent="WMfOsqNfYVRaj0SjAV3j-194" source="WMfOsqNfYVRaj0SjAV3j-246">
          <mxGeometry relative="1" as="geometry">
            <mxPoint x="160" y="440" as="targetPoint" />
            <Array as="points">
              <mxPoint x="70" y="530" />
              <mxPoint x="70" y="440" />
              <mxPoint x="160" y="440" />
            </Array>
          </mxGeometry>
        </mxCell>
        <mxCell id="WMfOsqNfYVRaj0SjAV3j-246" value="所有任務都完成?" style="rhombus;whiteSpace=wrap;html=1;strokeWidth=1;" vertex="1" parent="WMfOsqNfYVRaj0SjAV3j-194">
          <mxGeometry x="90" y="470" width="140" height="120" as="geometry" />
        </mxCell>
        <mxCell id="WMfOsqNfYVRaj0SjAV3j-247" value="" style="edgeStyle=orthogonalEdgeStyle;rounded=0;orthogonalLoop=1;jettySize=auto;html=1;" edge="1" parent="WMfOsqNfYVRaj0SjAV3j-194" source="WMfOsqNfYVRaj0SjAV3j-244" target="WMfOsqNfYVRaj0SjAV3j-246">
          <mxGeometry relative="1" as="geometry" />
        </mxCell>
        <mxCell id="WMfOsqNfYVRaj0SjAV3j-250" value="程式結束" style="strokeWidth=1;html=1;shape=mxgraph.flowchart.terminator;whiteSpace=wrap;" vertex="1" parent="WMfOsqNfYVRaj0SjAV3j-194">
          <mxGeometry x="110" y="700" width="100" height="60" as="geometry" />
        </mxCell>
        <mxCell id="WMfOsqNfYVRaj0SjAV3j-253" value="No" style="text;html=1;align=center;verticalAlign=middle;resizable=0;points=[];autosize=1;strokeColor=none;fillColor=none;" vertex="1" parent="WMfOsqNfYVRaj0SjAV3j-194">
          <mxGeometry x="30" y="470" width="40" height="30" as="geometry" />
        </mxCell>
        <mxCell id="WMfOsqNfYVRaj0SjAV3j-254" value="Yes" style="text;html=1;align=center;verticalAlign=middle;resizable=0;points=[];autosize=1;strokeColor=none;fillColor=none;" vertex="1" parent="WMfOsqNfYVRaj0SjAV3j-194">
          <mxGeometry x="120" y="609" width="40" height="30" as="geometry" />
        </mxCell>
        <mxCell id="WMfOsqNfYVRaj0SjAV3j-264" value="RabbitMQ伺服器中Pending Queue&lt;br&gt;有資料" style="rounded=0;whiteSpace=wrap;html=1;" vertex="1" parent="WMfOsqNfYVRaj0SjAV3j-194">
          <mxGeometry x="420" y="130" width="120" height="60" as="geometry" />
        </mxCell>
        <mxCell id="WMfOsqNfYVRaj0SjAV3j-266" value="載入圖片資訊&lt;br&gt;到記憶體" style="whiteSpace=wrap;html=1;rounded=0;" vertex="1" parent="WMfOsqNfYVRaj0SjAV3j-194">
          <mxGeometry x="420" y="270" width="120" height="60" as="geometry" />
        </mxCell>
        <mxCell id="WMfOsqNfYVRaj0SjAV3j-263" value="" style="edgeStyle=orthogonalEdgeStyle;rounded=0;orthogonalLoop=1;jettySize=auto;html=1;" edge="1" parent="WMfOsqNfYVRaj0SjAV3j-194" source="WMfOsqNfYVRaj0SjAV3j-264" target="WMfOsqNfYVRaj0SjAV3j-266">
          <mxGeometry relative="1" as="geometry" />
        </mxCell>
        <mxCell id="WMfOsqNfYVRaj0SjAV3j-268" value="使用Tesseract&lt;br&gt;執行OCR" style="whiteSpace=wrap;html=1;rounded=0;" vertex="1" parent="WMfOsqNfYVRaj0SjAV3j-194">
          <mxGeometry x="420" y="410" width="120" height="60" as="geometry" />
        </mxCell>
        <mxCell id="WMfOsqNfYVRaj0SjAV3j-265" value="" style="edgeStyle=orthogonalEdgeStyle;rounded=0;orthogonalLoop=1;jettySize=auto;html=1;" edge="1" parent="WMfOsqNfYVRaj0SjAV3j-194" source="WMfOsqNfYVRaj0SjAV3j-266" target="WMfOsqNfYVRaj0SjAV3j-268">
          <mxGeometry relative="1" as="geometry" />
        </mxCell>
        <mxCell id="WMfOsqNfYVRaj0SjAV3j-269" value="將執行結果放入&lt;br&gt;RabbitMQ的&lt;br&gt;Result Queue" style="whiteSpace=wrap;html=1;rounded=0;" vertex="1" parent="WMfOsqNfYVRaj0SjAV3j-194">
          <mxGeometry x="420" y="550" width="120" height="60" as="geometry" />
        </mxCell>
        <mxCell id="WMfOsqNfYVRaj0SjAV3j-267" value="" style="edgeStyle=orthogonalEdgeStyle;rounded=0;orthogonalLoop=1;jettySize=auto;html=1;" edge="1" parent="WMfOsqNfYVRaj0SjAV3j-194" source="WMfOsqNfYVRaj0SjAV3j-268" target="WMfOsqNfYVRaj0SjAV3j-269">
          <mxGeometry relative="1" as="geometry" />
        </mxCell>
      </root>
    </mxGraphModel>
  </diagram>
</mxfile>
